<?xml version="1.0" encoding="utf-8"?>
<!-- Generator: Adobe Illustrator 24.0.2, SVG Export Plug-In . SVG Version: 6.00 Build 0)  -->
<svg version="1.1" id="레이어_1" xmlns="http://www.w3.org/2000/svg" xmlns:xlink="http://www.w3.org/1999/xlink" x="0px"
	 y="0px" viewBox="0 0 500 500" style="enable-background:new 0 0 500 500;" xml:space="preserve">
<style type="text/css">
	.st0{fill:#F4F4F4;}
</style>
<polygon class="st0" points="101.07,207.9 138.83,187.3 138.83,273.12 186.89,300.58 162.86,314.31 101.07,279.98 "/>
<polyline class="st0" points="145.69,183.87 166.29,173.57 229.8,206.18 229.8,278.27 192.04,298.86 192.04,261.1 161.14,243.94 
	161.14,219.91 192.04,237.07 192.04,213.04 143.98,184.87 "/>
<polygon class="st0" points="260.69,182.15 288.15,182.15 288.15,281.7 325.91,281.7 325.91,292 260.69,292 "/>
<polygon class="st0" points="332.78,182.15 332.78,292 360.24,292 360.24,243.94 394.57,243.94 394.57,233.64 360.24,233.64 
	360.24,192.45 398,192.45 398,185.58 398,182.15 "/>
</svg>
