<svg width="157" height="27" viewBox="0 0 157 27" fill="none" xmlns="http://www.w3.org/2000/svg">
<path d="M6.318 24.338C10.218 24.338 11.882 21.582 11.882 18.15V4.838H8.866V17.864C8.866 20.672 7.904 21.712 5.98 21.712C4.732 21.712 3.692 21.114 2.886 19.632L0.78 21.166C1.976 23.272 3.744 24.338 6.318 24.338ZM16.8169 24H19.8329V4.838H16.8169V24ZM24.8404 24H35.9684V21.452H27.8564V4.838H24.8404V24ZM39.3384 24H50.4664V21.452H42.3544V4.838H39.3384V24ZM58.5855 24.338C62.7715 24.338 65.3195 21.842 65.3195 18.774C65.3195 15.966 63.6815 14.562 61.4195 13.6L58.7935 12.482C57.2335 11.858 55.6995 11.234 55.6995 9.57C55.6995 8.062 56.9735 7.126 58.9235 7.126C60.6135 7.126 61.9395 7.776 63.1355 8.842L64.7215 6.918C63.2655 5.436 61.1595 4.5 58.9235 4.5C55.2835 4.5 52.6315 6.762 52.6315 9.778C52.6315 12.56 54.6855 14.016 56.5315 14.796L59.1835 15.94C60.9515 16.72 62.2515 17.266 62.2515 19.008C62.2515 20.62 60.9515 21.712 58.6375 21.712C56.7915 21.712 54.9195 20.828 53.5415 19.45L51.7735 21.53C53.5155 23.298 55.9595 24.338 58.5855 24.338ZM72.2599 24H75.2759V7.386H80.9179V4.838H66.6439V7.386H72.2599V24ZM91.249 24.338C95.487 24.338 98.347 22.024 98.347 15.784V4.838H95.435V15.992C95.435 20.308 93.667 21.712 91.249 21.712C88.857 21.712 87.141 20.308 87.141 15.992V4.838H84.125V15.784C84.125 22.024 87.011 24.338 91.249 24.338ZM106.532 13.6C107.156 11.52 107.754 9.414 108.3 7.23H108.43C109.002 9.388 109.574 11.52 110.224 13.6L110.978 16.174H105.752L106.532 13.6ZM100.344 24H103.412L105.05 18.54H111.706L113.318 24H116.516L110.172 4.838H106.688L100.344 24ZM119.04 24H122.056V16.278H125.15L129.492 24H132.898L128.218 15.888C130.636 15.134 132.222 13.366 132.222 10.402C132.222 6.268 129.258 4.838 125.306 4.838H119.04V24ZM122.056 13.86V7.282H124.942C127.724 7.282 129.232 8.088 129.232 10.402C129.232 12.716 127.724 13.86 124.942 13.86H122.056ZM139.57 24H142.586V7.386H148.228V4.838H133.954V7.386H139.57V24Z" fill="black"/>
</svg>
